<?xml version="1.0" encoding="utf-8"?>
<!-- Generator: Adobe Illustrator 26.0.3, SVG Export Plug-In . SVG Version: 6.00 Build 0)  -->
<svg version="1.0" id="katman_1" xmlns="http://www.w3.org/2000/svg" xmlns:xlink="http://www.w3.org/1999/xlink" x="0px" y="0px"
	 viewBox="0 0 600 450" style="enable-background:new 0 0 600 450;" xml:space="preserve">
<style type="text/css">
	.st0{fill:#3EA635;}
	.st1{fill:#FFFFFF;}
</style>
<rect x="125.1" y="50.4" class="st0" width="350" height="350"/>
<polygon class="st1" points="150.8,92.5 150.8,104.9 150.9,104.9 159.2,96.2 159.3,96.2 159.3,150.2 171.2,150.2 171.2,79.7 
	161.7,79.7 "/>
<path class="st1" d="M199.4,102c-4.7,0-8.1,1.7-10,4.9h-0.1V89.3h20.4v-9.7h-31.2v39.8h10.8v-1.6c0-4.2,1.9-6.5,5.2-6.5
	c3.6,0,5.1,2.5,5.1,6.4v17.1c0,3.7-1.4,6.3-5,6.3c-4.1,0-5.5-2.7-5.5-6.9v-8.8h-10.8v8c0,10.7,4.3,17.6,16.3,17.6
	c12,0,16.9-6.4,16.9-16.1v-17.3C211.4,106.5,205.7,102,199.4,102"/>
<g>
	<path class="st1" d="M271.8,287c0.4,0,0.8,0.3,0.8,0.8v25.5c0,0.4-0.3,0.8-0.8,0.8h-10.3c-0.4,0-0.8-0.3-0.8-0.8v-25.5
		c0-0.4,0.3-0.8,0.8-0.8H271.8z"/>
	<path class="st1" d="M385.1,325h-170c-0.4,0-0.8,0.4-0.8,0.8v10.4c0,0.4,0.4,0.8,0.8,0.8h170c0.4,0,0.8-0.3,0.8-0.8v-10.4
		C385.9,325.4,385.5,325,385.1,325"/>
	<path class="st1" d="M385.1,345.6h-170c-0.4,0-0.8,0.3-0.8,0.8v10.4c0,0.4,0.4,0.8,0.8,0.8h170c0.4,0,0.8-0.4,0.8-0.8v-10.4
		C385.9,346,385.5,345.6,385.1,345.6"/>
	<path class="st1" d="M352.8,258.8c-2.1-1.7-7.8-5.5-14.7-5.5c-4.9,0-9.5,1.9-13.6,5.8c-0.3,0.3-0.5,0.7-0.5,1.1v0.9
		c0,0.5,0.2,0.9,0.5,1.2c0.4,0.3,0.8,0.4,1.2,0.3c0.1,0,0.2,0,0.3-0.1c0.3-0.1,0.6-0.3,0.8-0.5c0.9-0.6,3.3-1.4,6.8-1.4
		c3.6,0,10.7,1,17.5,7.3l0.2,0.1c0.4,0.4,0.9,0.6,1.5,0.6c0.5,0,1.1-0.2,1.4-0.6l0.1-0.1c6.9-6.4,13.9-7.4,17.5-7.4
		c3.5,0,5.9,0.8,6.8,1.4c0.2,0.2,0.5,0.4,0.9,0.6c0.2,0,0.6,0.1,1,0c0.6-0.2,1.1-0.7,1.1-1.4v-0.8c0-0.4-0.2-0.8-0.5-1.1
		c-4.2-4-8.8-6-13.8-6C360.6,253.3,354.9,257.1,352.8,258.8"/>
	<path class="st1" d="M342.2,191.1c-0.4,0.2-0.6,0.5-0.7,0.9l-0.2,0.6c-0.1,0.4,0,0.9,0.2,1.3c0.3,0.3,0.6,0.6,1.1,0.6
		c0.1,0,0.2,0,0.2,0c0.3,0,0.6-0.1,0.8-0.2c0.2,0,0.5-0.1,1-0.1c0.8,0,7.6,0.2,12.1,7.9l0.1,0.1c0.2,0.4,0.6,0.8,1.1,0.9
		c0.1,0,0.4,0.1,0.5,0.1c0.3,0,0.6-0.1,0.9-0.2l0.1-0.1c2.5-1.2,5-1.9,7.6-1.9c4.3,0,7.1,1.8,7.8,2.5c0.1,0.2,0.3,0.5,0.6,0.6
		c0.1,0.1,0.4,0.2,0.6,0.3c0.1,0,0.2,0,0.3,0c0,0,0.1,0,0.2,0c0.2,0,0.5-0.1,0.7-0.2c0.3-0.2,0.6-0.5,0.7-0.9l0.1-0.5
		c0-0.1,0.1-0.3,0.1-0.4c0-0.3-0.1-0.5-0.2-0.7c-3.3-5.7-8.1-6.9-11.5-6.9c-2.6,0-4.8,0.7-6.1,1.1c-1.6-2.1-5.5-6.4-11.5-6.4
		C346.5,189.5,344.3,190,342.2,191.1"/>
	<path class="st1" d="M306.3,217.2l0,0.8c0,0.5,0.3,0.9,0.7,1.1c0.3,0.2,0.8,0.3,1.1,0.2c0.1,0,0.2,0,0.2-0.1
		c0.3-0.1,0.5-0.3,0.7-0.5c0.7-0.5,3-1.5,6.5-1.5c3.3,0,8.3,0.9,13.4,5.1l0.1,0.1c0.4,0.3,0.8,0.5,1.3,0.5h0.1c0.5,0,1-0.3,1.3-0.6
		l0.1-0.1c5.7-6,11.8-6.9,14.9-6.9c2.2,0,3.8,0.5,4.4,0.8c0.2,0.2,0.5,0.4,0.9,0.5c0.1,0,0.4,0.1,0.6,0c0.1,0,0.2-0.1,0.4-0.1
		c0.6-0.2,1-0.8,1-1.5l0-0.7c0-0.4-0.2-0.8-0.5-1c-3.4-2.8-7-4.3-10.9-4.3c-6,0-10.7,3.5-12.7,5.3c-1.8-1.2-6.2-3.8-11.3-3.8
		c-4.5,0-8.6,1.9-12.1,5.6C306.4,216.4,306.3,216.8,306.3,217.2"/>
	<path class="st1" d="M220.3,230.9c0-10.2,8.3-18.4,18.4-18.4c0.4,0,0.8,0,1.2,0.1c1-12.9,11.7-23,24.8-23
		c13.8,0,24.9,11.2,24.9,24.9c0,3.9-0.9,7.6-2.5,10.9c12.5,2.8,21.8,13.9,21.8,27.2c0,15.4-12.5,27.9-27.9,27.9
		c-1.1,0-37.2-0.2-37.2-0.2l0,0c-10.9,0-19.7-8.8-19.7-19.7c0-5.2,2.1-10,5.4-13.5C224,243.7,220.3,237.7,220.3,230.9z"/>
</g>
<g>
	<path class="st1" d="M237,79.7h4.8v24.7h5.7v3.9H237V79.7z"/>
	<path class="st1" d="M250.1,79.7h4.8v28.6h-4.8V79.7z"/>
	<path class="st1" d="M258.6,79.7h11.3v3.9h-6.5v8.2h4.8v3.9h-4.8v12.6h-4.8V79.7z"/>
	<path class="st1" d="M272.3,79.7h11.5v3.9h-6.7v8.2h4.8v3.9h-4.8v8.7h6.7v3.9h-11.5V79.7z"/>
</g>
<g>
	<path class="st1" d="M236.9,142.9v-13.8c0-4.5,2.2-7.7,7.3-7.7c5.1,0,7.3,3.2,7.3,7.7v13.8c0,4.4-2.2,7.7-7.3,7.7
		C239.1,150.6,236.9,147.3,236.9,142.9z M246.7,143.7v-15.4c0-1.7-0.8-3-2.5-3c-1.7,0-2.4,1.2-2.4,3v15.4c0,1.7,0.8,3,2.4,3
		C245.9,146.6,246.7,145.4,246.7,143.7z"/>
	<path class="st1" d="M258.2,132.3v18h-4.1v-28.6h4.7l5.2,16.4v-16.4h4v28.6h-4.2L258.2,132.3z"/>
	<path class="st1" d="M278.5,121.7h4.8v24.7h5.7v3.9h-10.5V121.7z"/>
	<path class="st1" d="M290.3,150.3l5.4-28.6h5.5l5.4,28.6h-4.9l-0.9-5.2h-5.1l-0.8,5.2H290.3z M296.3,141.2h3.8l-1.9-11.5h0
		L296.3,141.2z"/>
	<path class="st1" d="M312.6,132.3v18h-4.1v-28.6h4.7l5.2,16.4v-16.4h4v28.6h-4.2L312.6,132.3z"/>
	<path class="st1" d="M340,129.4v13.2c0,4.4-1.8,7.7-7,7.7h-7.4v-28.6h7.4C338.2,121.7,340,125,340,129.4z M332.4,146.4
		c2,0,2.7-1.2,2.7-2.9v-15c0-1.7-0.8-2.9-2.7-2.9h-2v20.8H332.4z"/>
</g>
</svg>
